<?xml version="1.0" encoding="UTF-8"?>
<!DOCTYPE svg PUBLIC "-//W3C//DTD SVG 1.1//EN" "http://www.w3.org/Graphics/SVG/1.1/DTD/svg11.dtd">
<svg xmlns="http://www.w3.org/2000/svg" version="1.1" width="1024px" height="1024px" style="shape-rendering:geometricPrecision; text-rendering:geometricPrecision; image-rendering:optimizeQuality; fill-rule:evenodd; clip-rule:evenodd" xmlns:xlink="http://www.w3.org/1999/xlink">
<g><path style="opacity:1" fill="#31b8fe" d="M -0.5,-0.5 C 340.833,-0.5 682.167,-0.5 1023.5,-0.5C 1023.5,340.833 1023.5,682.167 1023.5,1023.5C 682.167,1023.5 340.833,1023.5 -0.5,1023.5C -0.5,682.167 -0.5,340.833 -0.5,-0.5 Z"/></g>
<g><path style="opacity:1" fill="#f4f8fb" d="M 297.5,166.5 C 343.93,163.299 379.763,180.966 405,219.5C 416.341,242.543 420.674,266.877 418,292.5C 413.776,335.608 396.61,372.608 366.5,403.5C 348.183,419.452 326.85,428.952 302.5,432C 277.852,433.458 254.519,428.458 232.5,417C 207.769,400.754 192.602,377.921 187,348.5C 179.845,315.045 183.179,282.712 197,251.5C 206.667,228.981 220.167,209.147 237.5,192C 255.265,178.137 275.265,169.637 297.5,166.5 Z"/></g>
<g><path style="opacity:1" fill="#f3f8fb" d="M 477.5,166.5 C 488.891,165.61 497.058,170.277 502,180.5C 502.333,210.5 502.667,240.5 503,270.5C 514.435,261.533 527.269,255.367 541.5,252C 570.485,248.412 592.652,258.912 608,283.5C 616.309,298.429 620.976,314.429 622,331.5C 622.667,358.5 622.667,385.5 622,412.5C 618.377,427.067 609.211,432.567 594.5,429C 589.08,427.212 585.247,423.712 583,418.5C 581.767,388.219 580.767,357.886 580,327.5C 578.263,313.527 572.43,301.694 562.5,292C 554.19,288.37 546.19,289.037 538.5,294C 524.667,303.833 512.833,315.667 503,329.5C 502.667,357.5 502.333,385.5 502,413.5C 496.065,427.597 485.899,431.763 471.5,426C 465.636,422.438 462.136,417.272 461,410.5C 460.333,334.833 460.333,259.167 461,183.5C 463.385,174.617 468.885,168.951 477.5,166.5 Z"/></g>
<g><path style="opacity:1" fill="#31b8fe" d="M 299.5,202.5 C 328.923,200.297 351.756,211.297 368,235.5C 376.058,252.621 379.058,270.621 377,289.5C 374.721,326.889 359.554,357.722 331.5,382C 305.915,399.206 279.915,399.873 253.5,384C 238.019,371.55 228.852,355.383 226,335.5C 221.547,297.312 230.547,262.645 253,231.5C 265.155,216.346 280.655,206.679 299.5,202.5 Z"/></g>
<g><path style="opacity:1" fill="#f4f8fb" d="M 378.5,578.5 C 406.04,575.162 429.207,583.495 448,603.5C 452.246,608.991 456.246,614.658 460,620.5C 463.22,633.217 458.72,641.717 446.5,646C 435.029,649.203 424.363,647.537 414.5,641C 409.208,634.04 403.542,627.373 397.5,621C 395.1,619.299 392.433,618.466 389.5,618.5C 354.146,625.349 322.146,639.516 293.5,661C 260.318,690.892 250.818,727.058 265,769.5C 281.791,806.818 310.625,823.318 351.5,819C 369.94,813.86 385.44,804.026 398,789.5C 409.778,769.687 426.278,764.52 447.5,774C 455.908,780.623 457.741,788.789 453,798.5C 406.252,859.316 347.085,875.482 275.5,847C 225.388,819.965 201.888,777.799 205,720.5C 212.716,678.526 233.883,645.36 268.5,621C 302.727,600.426 339.394,586.259 378.5,578.5 Z"/></g>
<g><path style="opacity:1" fill="#f4f8fb" d="M 874.5,645.5 C 896.135,644.159 916.468,648.659 935.5,659C 943.05,663.55 948.884,669.717 953,677.5C 955.133,690.72 949.633,698.887 936.5,702C 931.167,702.667 925.833,702.667 920.5,702C 912.001,698.164 904.001,693.497 896.5,688C 892.361,685.933 888.027,685.266 883.5,686C 863.018,693.487 844.851,704.653 829,719.5C 828.667,760.5 828.333,801.5 828,842.5C 825.928,849.573 821.428,854.406 814.5,857C 799.9,862.795 787.734,859.628 778,847.5C 777.529,845.754 776.862,844.087 776,842.5C 775.667,794.167 775.333,745.833 775,697.5C 769.656,694.663 764.656,691.329 760,687.5C 752.876,676.516 755.043,667.683 766.5,661C 778.578,657.512 790.578,657.846 802.5,662C 808.059,664.363 813.559,666.863 819,669.5C 836.104,658.025 854.604,650.025 874.5,645.5 Z"/></g>
<g><path style="opacity:1" fill="#f4f8fb" d="M 627.5,652.5 C 642.586,651.97 657.586,652.804 672.5,655C 681.699,657.53 688.532,663.03 693,671.5C 691.382,709.238 692.382,746.904 696,784.5C 696.792,792.338 699.125,799.671 703,806.5C 708,813.5 713,820.5 718,827.5C 723.33,841.847 718.83,851.68 704.5,857C 695.99,858.114 687.656,857.448 679.5,855C 673.988,850.154 668.488,845.32 663,840.5C 641.617,853.846 618.284,859.846 593,858.5C 559.071,861.184 531.071,849.85 509,824.5C 497.453,806.435 493.453,786.768 497,765.5C 502.23,741.705 513.23,721.038 530,703.5C 548.538,684.632 570.038,670.132 594.5,660C 605.474,656.775 616.474,654.275 627.5,652.5 Z"/></g>
<g><path style="opacity:1" fill="#33b8fe" d="M 633.5,692.5 C 635.5,692.5 637.5,692.5 639.5,692.5C 638.528,713.158 638.361,733.825 639,754.5C 639.577,769.364 641.244,784.03 644,798.5C 634.249,805.295 624.083,811.461 613.5,817C 593.685,822.874 575.685,819.54 559.5,807C 550.887,796.385 547.72,784.218 550,770.5C 556.672,737.49 575.505,714.324 606.5,701C 615.526,697.822 624.526,694.989 633.5,692.5 Z"/></g>
</svg>
